# MagicaVoxel @ Ephtracy

# group
o 

# material
mtllib Plane04-3.mtl
usemtl palette

# normals
vn 0 -1 0
vn 0 1 0
vn -1 0 0
vn 1 0 0
vn 0 0 1
vn 0 0 -1

# texcoords
vt 0.939453 0.5
vt 0.943359 0.5
vt 0.947266 0.5

# verts
v 2 3.6 2
v 2.1 3.6 2
v 2.4 3.6 2
v 2.1 3.6 1.9
v 2.4 3.6 1.9
v 2 3.6 1.7
v 2.4 3.6 1.7
v 2.4 3.7 2
v 2.6 3.7 2
v 2.4 3.7 1.9
v 2.5 3.7 1.9
v 2.6 3.7 1.9
v 2.4 3.7 1.8
v 2.5 3.7 1.8
v 2 3.7 1.7
v 2.3 3.7 1.7
v 2.4 3.7 1.7
v 2.5 3.7 1.7
v 2.6 3.7 1.7
v 2 3.7 1.6
v 2.3 3.7 1.6
v 2.4 3.7 1.6
v 2 3.8 2.1
v 2.2 3.8 2.1
v 2.4 3.8 2.1
v 2 3.8 2
v 2.1 3.8 2
v 2.2 3.8 2
v 2.4 3.8 2
v 2.6 3.8 1.9
v 2.7 3.8 1.9
v 2.4 3.8 1.7
v 2.5 3.8 1.7
v 2.6 3.8 1.7
v 2 3.8 1.6
v 2.1 3.8 1.6
v 2.3 3.8 1.6
v 2.4 3.8 1.6
v 2.7 3.8 1.6
v 2 3.8 1.5
v 2.1 3.8 1.5
v 2.4 3.8 1.5
v 2 3.9 2.2
v 2.2 3.9 2.2
v 2.3 3.9 2.2
v 2.4 3.9 2.2
v 2 3.9 2.1
v 2.2 3.9 2.1
v 2.3 3.9 2.1
v 2.4 3.9 2.1
v 2.6 3.9 2.1
v 2.4 3.9 2
v 2.5 3.9 2
v 2.6 3.9 2
v 2.7 3.9 2
v 2.6 3.9 1.9
v 2.7 3.9 1.9
v 2.8 3.9 1.9
v 2.4 3.9 1.6
v 2.5 3.9 1.6
v 2.6 3.9 1.6
v 2.7 3.9 1.6
v 2.8 3.9 1.6
v 2 3.9 1.5
v 2.1 3.9 1.5
v 2.2 3.9 1.5
v 2.4 3.9 1.5
v 2.5 3.9 1.5
v 2.6 3.9 1.5
v 2.7 3.9 1.5
v 2 3.9 1.4
v 2.1 3.9 1.4
v 2.2 3.9 1.4
v 2.4 3.9 1.4
v 2.6 4 2.1
v 2.7 4 2.1
v 2.6 4 2
v 2.7 4 2
v 2.8 4 2
v 2.7 4 1.9
v 2.8 4 1.9
v 2.9 4 1.9
v 2.8 4 1.8
v 2.9 4 1.8
v 2.8 4 1.7
v 2.9 4 1.7
v 2.6 4.2 2.1
v 2.7 4.2 2.1
v 2.6 4.2 2
v 2.7 4.2 2
v 2.8 4.2 2
v 2.7 4.2 1.9
v 2.8 4.2 1.9
v 2.9 4.2 1.9
v 2.8 4.2 1.8
v 2.9 4.2 1.8
v 2.8 4.2 1.7
v 2.9 4.2 1.7
v 2 4.3 2.2
v 2.1 4.3 2.2
v 2.2 4.3 2.2
v 2.3 4.3 2.2
v 2.4 4.3 2.2
v 2 4.3 2.1
v 2.1 4.3 2.1
v 2.2 4.3 2.1
v 2.3 4.3 2.1
v 2.4 4.3 2.1
v 2.5 4.3 2.1
v 2.6 4.3 2.1
v 2.4 4.3 2
v 2.5 4.3 2
v 2.6 4.3 2
v 2.7 4.3 2
v 2.6 4.3 1.9
v 2.7 4.3 1.9
v 2.8 4.3 1.9
v 2.4 4.3 1.6
v 2.7 4.3 1.6
v 2.8 4.3 1.6
v 2 4.3 1.5
v 2.1 4.3 1.5
v 2.4 4.3 1.5
v 2.7 4.3 1.5
v 2 4.3 1.4
v 2.1 4.3 1.4
v 2.4 4.3 1.4
v 2 4.4 2.1
v 2.3 4.4 2.1
v 2.4 4.4 2.1
v 2 4.4 2
v 2.3 4.4 2
v 2.4 4.4 2
v 2.6 4.4 1.9
v 2.7 4.4 1.9
v 2.4 4.4 1.7
v 2.5 4.4 1.7
v 2.6 4.4 1.7
v 2 4.4 1.6
v 2.3 4.4 1.6
v 2.4 4.4 1.6
v 2.7 4.4 1.6
v 2 4.4 1.5
v 2.4 4.4 1.5
v 2.4 4.5 2
v 2.5 4.5 2
v 2.6 4.5 2
v 2.4 4.5 1.9
v 2.5 4.5 1.9
v 2 4.5 1.7
v 2.3 4.5 1.7
v 2.4 4.5 1.7
v 2.5 4.5 1.7
v 2.6 4.5 1.7
v 2 4.5 1.6
v 2.3 4.5 1.6
v 2.4 4.5 1.6
v 2 4.6 2
v 2.2 4.6 2
v 2.4 4.6 2
v 2.2 4.6 1.9
v 2.4 4.6 1.9
v 2 4.6 1.7
v 2.4 4.6 1.7
v 2 3.6 2
v 2 3.6 1.7
v 2 3.7 1.7
v 2 3.7 1.6
v 2 3.8 2.1
v 2 3.8 2
v 2 3.8 1.9
v 2 3.8 1.6
v 2 3.8 1.5
v 2 3.9 2.2
v 2 3.9 2.1
v 2 3.9 1.9
v 2 3.9 1.8
v 2 3.9 1.6
v 2 3.9 1.5
v 2 3.9 1.4
v 2 4 1.8
v 2 4 1.4
v 2 4.2 1.8
v 2 4.2 1.5
v 2 4.3 2.2
v 2 4.3 2.1
v 2 4.3 1.9
v 2 4.3 1.8
v 2 4.3 1.5
v 2 4.3 1.4
v 2 4.4 2.1
v 2 4.4 2
v 2 4.4 1.9
v 2 4.4 1.6
v 2 4.4 1.5
v 2 4.5 1.7
v 2 4.5 1.6
v 2 4.6 2
v 2 4.6 1.7
v 2.4 3.6 2
v 2.4 3.6 1.9
v 2.4 3.6 1.7
v 2.4 3.7 2
v 2.4 3.7 1.9
v 2.4 3.7 1.8
v 2.4 3.7 1.7
v 2.4 3.7 1.6
v 2.4 3.8 2.1
v 2.4 3.8 2
v 2.4 3.8 1.7
v 2.4 3.8 1.6
v 2.4 3.8 1.5
v 2.4 3.9 2.2
v 2.4 3.9 2.1
v 2.4 3.9 2
v 2.4 3.9 1.6
v 2.4 3.9 1.5
v 2.4 3.9 1.4
v 2.4 4 2.2
v 2.4 4 2.1
v 2.4 4 1.5
v 2.4 4 1.4
v 2.4 4.2 1.5
v 2.4 4.2 1.4
v 2.4 4.3 2.2
v 2.4 4.3 2.1
v 2.4 4.3 2
v 2.4 4.3 1.6
v 2.4 4.3 1.5
v 2.4 4.3 1.4
v 2.4 4.4 2.1
v 2.4 4.4 2
v 2.4 4.4 1.7
v 2.4 4.4 1.6
v 2.4 4.4 1.5
v 2.4 4.5 2
v 2.4 4.5 1.9
v 2.4 4.5 1.7
v 2.4 4.5 1.6
v 2.4 4.6 2
v 2.4 4.6 1.9
v 2.4 4.6 1.7
v 2.6 3.7 2
v 2.6 3.7 1.9
v 2.6 3.7 1.7
v 2.6 3.8 1.9
v 2.6 3.8 1.7
v 2.6 3.9 2.1
v 2.6 3.9 2
v 2.6 3.9 1.9
v 2.6 4 2.1
v 2.6 4 2
v 2.6 4.2 2.1
v 2.6 4.2 2
v 2.6 4.3 2.1
v 2.6 4.3 2
v 2.6 4.3 1.9
v 2.6 4.4 2
v 2.6 4.4 1.9
v 2.6 4.4 1.7
v 2.6 4.5 2
v 2.6 4.5 1.7
v 2.7 3.8 1.9
v 2.7 3.8 1.6
v 2.7 3.9 2
v 2.7 3.9 1.9
v 2.7 3.9 1.6
v 2.7 3.9 1.5
v 2.7 4 2.1
v 2.7 4 2
v 2.7 4 1.9
v 2.7 4 1.6
v 2.7 4 1.5
v 2.7 4.2 2.1
v 2.7 4.2 2
v 2.7 4.2 1.9
v 2.7 4.2 1.6
v 2.7 4.2 1.5
v 2.7 4.3 2
v 2.7 4.3 1.9
v 2.7 4.3 1.6
v 2.7 4.3 1.5
v 2.7 4.4 1.9
v 2.7 4.4 1.6
v 2.8 3.9 1.9
v 2.8 3.9 1.6
v 2.8 4 2
v 2.8 4 1.9
v 2.8 4 1.8
v 2.8 4 1.7
v 2.8 4 1.6
v 2.8 4.1 1.9
v 2.8 4.1 1.7
v 2.8 4.2 2
v 2.8 4.2 1.9
v 2.8 4.2 1.8
v 2.8 4.2 1.7
v 2.8 4.2 1.6
v 2.8 4.3 1.9
v 2.8 4.3 1.6
v 2.9 4 1.9
v 2.9 4 1.8
v 2.9 4 1.7
v 2.9 4.1 1.9
v 2.9 4.1 1.8
v 2.9 4.1 1.7
v 2.9 4.2 1.9
v 2.9 4.2 1.8
v 2.9 4.2 1.7
v 2 3.9 2.2
v 2 4.3 2.2
v 2.1 4.2 2.2
v 2.1 4.3 2.2
v 2.2 3.9 2.2
v 2.2 4 2.2
v 2.2 4.2 2.2
v 2.2 4.3 2.2
v 2.3 3.9 2.2
v 2.3 4 2.2
v 2.3 4.3 2.2
v 2.4 3.9 2.2
v 2.4 4 2.2
v 2.4 4.3 2.2
v 2 3.8 2.1
v 2 3.9 2.1
v 2 4.3 2.1
v 2 4.4 2.1
v 2.1 4.3 2.1
v 2.2 3.8 2.1
v 2.2 3.9 2.1
v 2.2 4.3 2.1
v 2.3 3.9 2.1
v 2.3 4.3 2.1
v 2.3 4.4 2.1
v 2.4 3.8 2.1
v 2.4 3.9 2.1
v 2.4 4 2.1
v 2.4 4.3 2.1
v 2.4 4.4 2.1
v 2.5 4 2.1
v 2.5 4.2 2.1
v 2.5 4.3 2.1
v 2.6 3.9 2.1
v 2.6 4 2.1
v 2.6 4.2 2.1
v 2.6 4.3 2.1
v 2.7 4 2.1
v 2.7 4.2 2.1
v 2 3.6 2
v 2 3.8 2
v 2 4.4 2
v 2 4.6 2
v 2.1 3.6 2
v 2.1 3.8 2
v 2.2 3.8 2
v 2.2 4.5 2
v 2.2 4.6 2
v 2.3 4.4 2
v 2.3 4.5 2
v 2.4 3.6 2
v 2.4 3.7 2
v 2.4 3.8 2
v 2.4 3.9 2
v 2.4 4.3 2
v 2.4 4.4 2
v 2.4 4.5 2
v 2.4 4.6 2
v 2.5 3.8 2
v 2.5 3.9 2
v 2.5 4.3 2
v 2.5 4.4 2
v 2.5 4.5 2
v 2.6 3.7 2
v 2.6 3.9 2
v 2.6 4 2
v 2.6 4.2 2
v 2.6 4.3 2
v 2.6 4.4 2
v 2.6 4.5 2
v 2.7 3.9 2
v 2.7 4 2
v 2.7 4.2 2
v 2.7 4.3 2
v 2.8 4 2
v 2.8 4.2 2
v 2.6 3.8 1.9
v 2.6 3.9 1.9
v 2.6 4.3 1.9
v 2.6 4.4 1.9
v 2.7 3.8 1.9
v 2.7 3.9 1.9
v 2.7 4 1.9
v 2.7 4.2 1.9
v 2.7 4.3 1.9
v 2.7 4.4 1.9
v 2.8 3.9 1.9
v 2.8 4 1.9
v 2.8 4.1 1.9
v 2.8 4.2 1.9
v 2.8 4.3 1.9
v 2.9 4 1.9
v 2.9 4.1 1.9
v 2.9 4.2 1.9
v 2 3.6 1.7
v 2 3.7 1.7
v 2 4.5 1.7
v 2 4.6 1.7
v 2.3 3.7 1.7
v 2.3 4.5 1.7
v 2.4 3.6 1.7
v 2.4 3.7 1.7
v 2.4 3.8 1.7
v 2.4 4.4 1.7
v 2.4 4.5 1.7
v 2.4 4.6 1.7
v 2.5 3.7 1.7
v 2.5 3.8 1.7
v 2.5 4.4 1.7
v 2.5 4.5 1.7
v 2.6 3.7 1.7
v 2.6 3.8 1.7
v 2.6 4.4 1.7
v 2.6 4.5 1.7
v 2.8 4 1.7
v 2.8 4.1 1.7
v 2.8 4.2 1.7
v 2.9 4 1.7
v 2.9 4.1 1.7
v 2.9 4.2 1.7
v 2 3.7 1.6
v 2 3.8 1.6
v 2 4.4 1.6
v 2 4.5 1.6
v 2.1 3.8 1.6
v 2.3 3.7 1.6
v 2.3 3.8 1.6
v 2.3 4.4 1.6
v 2.3 4.5 1.6
v 2.4 3.7 1.6
v 2.4 3.8 1.6
v 2.4 3.9 1.6
v 2.4 4.3 1.6
v 2.4 4.4 1.6
v 2.4 4.5 1.6
v 2.5 3.9 1.6
v 2.6 3.9 1.6
v 2.7 3.8 1.6
v 2.7 3.9 1.6
v 2.7 4 1.6
v 2.7 4.2 1.6
v 2.7 4.3 1.6
v 2.7 4.4 1.6
v 2.8 3.9 1.6
v 2.8 4 1.6
v 2.8 4.2 1.6
v 2.8 4.3 1.6
v 2 3.8 1.5
v 2 3.9 1.5
v 2 4.3 1.5
v 2 4.4 1.5
v 2.1 3.8 1.5
v 2.1 3.9 1.5
v 2.1 4.3 1.5
v 2.2 3.9 1.5
v 2.4 3.8 1.5
v 2.4 3.9 1.5
v 2.4 4 1.5
v 2.4 4.2 1.5
v 2.4 4.3 1.5
v 2.4 4.4 1.5
v 2.5 3.9 1.5
v 2.5 4 1.5
v 2.6 3.9 1.5
v 2.6 4 1.5
v 2.7 3.9 1.5
v 2.7 4 1.5
v 2.7 4.2 1.5
v 2.7 4.3 1.5
v 2 3.9 1.4
v 2 4 1.4
v 2 4.3 1.4
v 2.1 3.9 1.4
v 2.1 4 1.4
v 2.1 4.2 1.4
v 2.1 4.3 1.4
v 2.2 3.9 1.4
v 2.2 4 1.4
v 2.4 3.9 1.4
v 2.4 4 1.4
v 2.4 4.2 1.4
v 2.4 4.3 1.4

# faces
f 4/2/1 2/2/1 1/2/1
f 4/1/1 3/1/1 2/1/1
f 5/1/1 3/1/1 4/1/1
f 6/2/1 4/2/1 1/2/1
f 6/2/1 5/2/1 4/2/1
f 7/2/1 5/2/1 6/2/1
f 10/2/1 9/2/1 8/2/1
f 11/2/1 9/2/1 10/2/1
f 12/2/1 9/2/1 11/2/1
f 13/2/1 11/2/1 10/2/1
f 14/3/1 12/3/1 11/3/1
f 14/2/1 11/2/1 13/2/1
f 17/1/1 14/1/1 13/1/1
f 18/3/1 12/3/1 14/3/1
f 18/1/1 14/1/1 17/1/1
f 19/3/1 12/3/1 18/3/1
f 20/2/1 16/2/1 15/2/1
f 21/1/1 17/1/1 16/1/1
f 21/2/1 16/2/1 20/2/1
f 22/1/1 17/1/1 21/1/1
f 26/2/1 24/2/1 23/2/1
f 27/2/1 24/2/1 26/2/1
f 28/1/1 25/1/1 24/1/1
f 28/2/1 24/2/1 27/2/1
f 29/1/1 25/1/1 28/1/1
f 34/3/1 31/3/1 30/3/1
f 38/3/1 33/3/1 32/3/1
f 38/3/1 34/3/1 33/3/1
f 39/3/1 31/3/1 34/3/1
f 39/3/1 34/3/1 38/3/1
f 40/2/1 36/2/1 35/2/1
f 41/3/1 37/3/1 36/3/1
f 41/2/1 36/2/1 40/2/1
f 41/3/1 38/3/1 37/3/1
f 42/3/1 38/3/1 41/3/1
f 47/2/1 44/2/1 43/2/1
f 48/1/1 45/1/1 44/1/1
f 48/2/1 44/2/1 47/2/1
f 49/2/1 46/2/1 45/2/1
f 49/1/1 45/1/1 48/1/1
f 50/2/1 46/2/1 49/2/1
f 52/2/1 51/2/1 50/2/1
f 53/2/1 51/2/1 52/2/1
f 54/2/1 51/2/1 53/2/1
f 56/3/1 55/3/1 54/3/1
f 57/3/1 55/3/1 56/3/1
f 62/3/1 58/3/1 57/3/1
f 63/3/1 58/3/1 62/3/1
f 67/3/1 60/3/1 59/3/1
f 68/2/1 61/2/1 60/2/1
f 68/3/1 60/3/1 67/3/1
f 69/3/1 62/3/1 61/3/1
f 69/2/1 61/2/1 68/2/1
f 70/3/1 62/3/1 69/3/1
f 71/3/1 65/3/1 64/3/1
f 72/2/1 66/2/1 65/2/1
f 72/3/1 65/3/1 71/3/1
f 73/3/1 67/3/1 66/3/1
f 73/2/1 66/2/1 72/2/1
f 74/3/1 67/3/1 73/3/1
f 77/2/1 76/2/1 75/2/1
f 78/2/1 76/2/1 77/2/1
f 80/2/1 79/2/1 78/2/1
f 81/2/1 79/2/1 80/2/1
f 83/3/1 82/3/1 81/3/1
f 84/3/1 82/3/1 83/3/1
f 85/2/1 84/2/1 83/2/1
f 86/2/1 84/2/1 85/2/1
f 87/2/2 88/2/2 89/2/2
f 89/2/2 88/2/2 90/2/2
f 90/2/2 91/2/2 92/2/2
f 92/2/2 91/2/2 93/2/2
f 93/2/2 94/2/2 95/2/2
f 95/2/2 94/2/2 96/2/2
f 95/3/2 96/3/2 97/3/2
f 97/3/2 96/3/2 98/3/2
f 99/2/2 100/2/2 104/2/2
f 100/1/2 101/1/2 105/1/2
f 104/2/2 100/2/2 105/2/2
f 101/2/2 102/2/2 106/2/2
f 105/1/2 101/1/2 106/1/2
f 102/1/2 103/1/2 107/1/2
f 106/2/2 102/2/2 107/2/2
f 107/1/2 103/1/2 108/1/2
f 108/1/2 109/1/2 111/1/2
f 109/3/2 110/3/2 112/3/2
f 111/1/2 109/1/2 112/1/2
f 112/3/2 110/3/2 113/3/2
f 113/3/2 114/3/2 115/3/2
f 115/3/2 114/3/2 116/3/2
f 116/3/2 117/3/2 119/3/2
f 119/3/2 117/3/2 120/3/2
f 118/3/2 119/3/2 123/3/2
f 123/3/2 119/3/2 124/3/2
f 121/2/2 122/2/2 125/2/2
f 122/3/2 123/3/2 126/3/2
f 125/2/2 122/2/2 126/2/2
f 126/3/2 123/3/2 127/3/2
f 128/2/2 129/2/2 131/2/2
f 129/1/2 130/1/2 132/1/2
f 131/2/2 129/2/2 132/2/2
f 132/1/2 130/1/2 133/1/2
f 134/3/2 135/3/2 138/3/2
f 136/3/2 137/3/2 141/3/2
f 137/3/2 138/3/2 141/3/2
f 138/3/2 135/3/2 142/3/2
f 141/3/2 138/3/2 142/3/2
f 139/3/2 140/3/2 143/3/2
f 140/3/2 141/3/2 143/3/2
f 143/3/2 141/3/2 144/3/2
f 145/1/2 146/1/2 148/1/2
f 146/3/2 147/3/2 149/3/2
f 148/1/2 146/1/2 149/1/2
f 148/2/2 149/2/2 152/2/2
f 149/3/2 147/3/2 153/3/2
f 152/2/2 149/2/2 153/2/2
f 153/3/2 147/3/2 154/3/2
f 150/2/2 151/2/2 155/2/2
f 151/1/2 152/1/2 156/1/2
f 155/2/2 151/2/2 156/2/2
f 156/1/2 152/1/2 157/1/2
f 158/2/2 159/2/2 161/2/2
f 159/1/2 160/1/2 161/1/2
f 161/1/2 160/1/2 162/1/2
f 158/2/2 161/2/2 163/2/2
f 161/2/2 162/2/2 163/2/2
f 163/2/2 162/2/2 164/2/2
f 167/2/3 166/2/3 165/2/3
f 170/2/3 167/2/3 165/2/3
f 170/2/3 168/2/3 167/2/3
f 171/2/3 168/2/3 170/2/3
f 172/2/3 168/2/3 171/2/3
f 175/2/3 170/2/3 169/2/3
f 175/2/3 171/2/3 170/2/3
f 176/3/3 172/3/3 171/3/3
f 176/2/3 171/2/3 175/2/3
f 177/3/3 172/3/3 176/3/3
f 178/2/3 173/2/3 172/2/3
f 178/3/3 172/3/3 177/3/3
f 179/2/3 173/2/3 178/2/3
f 181/2/3 177/2/3 176/2/3
f 181/3/3 180/3/3 179/3/3
f 181/3/3 179/3/3 178/3/3
f 181/3/3 178/3/3 177/3/3
f 181/2/3 176/2/3 175/2/3
f 181/2/3 175/2/3 174/2/3
f 182/3/3 180/3/3 181/3/3
f 183/2/3 181/2/3 174/2/3
f 183/2/3 182/2/3 181/2/3
f 184/2/3 182/2/3 183/2/3
f 185/2/3 183/2/3 174/2/3
f 186/2/3 183/2/3 185/2/3
f 187/2/3 183/2/3 186/2/3
f 188/3/3 184/3/3 183/3/3
f 188/2/3 183/2/3 187/2/3
f 189/2/3 182/2/3 184/2/3
f 189/3/3 184/3/3 188/3/3
f 190/2/3 182/2/3 189/2/3
f 191/2/3 187/2/3 186/2/3
f 192/2/3 187/2/3 191/2/3
f 193/3/3 188/3/3 187/3/3
f 193/2/3 187/2/3 192/2/3
f 193/3/3 189/3/3 188/3/3
f 194/3/3 189/3/3 193/3/3
f 195/3/3 189/3/3 194/3/3
f 196/2/3 193/2/3 192/2/3
f 196/2/3 194/2/3 193/2/3
f 197/2/3 194/2/3 196/2/3
f 198/2/3 196/2/3 192/2/3
f 199/2/3 196/2/3 198/2/3
f 200/1/4 201/1/4 203/1/4
f 201/2/4 202/2/4 204/2/4
f 203/1/4 201/1/4 204/1/4
f 204/2/4 202/2/4 205/2/4
f 205/2/4 202/2/4 206/2/4
f 206/1/4 207/1/4 210/1/4
f 210/1/4 207/1/4 211/1/4
f 208/1/4 209/1/4 214/1/4
f 214/1/4 209/1/4 215/1/4
f 211/3/4 212/3/4 216/3/4
f 216/3/4 212/3/4 217/3/4
f 213/2/4 214/2/4 219/2/4
f 219/2/4 214/2/4 220/2/4
f 217/3/4 218/3/4 221/3/4
f 221/3/4 218/3/4 222/3/4
f 221/2/4 222/2/4 223/2/4
f 223/2/4 222/2/4 224/2/4
f 219/1/4 220/1/4 225/1/4
f 225/1/4 220/1/4 226/1/4
f 223/3/4 224/3/4 229/3/4
f 229/3/4 224/3/4 230/3/4
f 226/1/4 227/1/4 231/1/4
f 231/1/4 227/1/4 232/1/4
f 228/3/4 229/3/4 234/3/4
f 234/3/4 229/3/4 235/3/4
f 233/1/4 234/1/4 238/1/4
f 238/1/4 234/1/4 239/1/4
f 236/1/4 237/1/4 240/1/4
f 237/2/4 238/2/4 241/2/4
f 240/1/4 237/1/4 241/1/4
f 241/2/4 238/2/4 242/2/4
f 243/2/4 244/2/4 246/2/4
f 244/3/4 245/3/4 246/3/4
f 246/3/4 245/3/4 247/3/4
f 243/2/4 246/2/4 249/2/4
f 249/2/4 246/2/4 250/2/4
f 248/2/4 249/2/4 251/2/4
f 251/2/4 249/2/4 252/2/4
f 253/3/4 254/3/4 255/3/4
f 255/3/4 254/3/4 256/3/4
f 256/2/4 257/2/4 258/2/4
f 258/2/4 257/2/4 259/2/4
f 258/3/4 259/3/4 261/3/4
f 259/3/4 260/3/4 261/3/4
f 261/3/4 260/3/4 262/3/4
f 263/3/4 264/3/4 266/3/4
f 266/3/4 264/3/4 267/3/4
f 265/3/4 266/3/4 270/3/4
f 270/3/4 266/3/4 271/3/4
f 267/3/4 268/3/4 272/3/4
f 272/3/4 268/3/4 273/3/4
f 269/2/4 270/2/4 274/2/4
f 274/2/4 270/2/4 275/2/4
f 272/2/4 273/2/4 277/2/4
f 277/2/4 273/2/4 278/2/4
f 275/3/4 276/3/4 279/3/4
f 279/3/4 276/3/4 280/3/4
f 277/3/4 278/3/4 281/3/4
f 281/3/4 278/3/4 282/3/4
f 280/3/4 281/3/4 283/3/4
f 283/3/4 281/3/4 284/3/4
f 285/3/4 286/3/4 288/3/4
f 288/3/4 286/3/4 289/3/4
f 289/3/4 286/3/4 290/3/4
f 290/3/4 286/3/4 291/3/4
f 287/2/4 288/2/4 292/2/4
f 290/2/4 291/2/4 293/2/4
f 287/2/4 292/2/4 294/2/4
f 294/2/4 292/2/4 295/2/4
f 293/2/4 291/2/4 297/2/4
f 297/2/4 291/2/4 298/2/4
f 295/3/4 296/3/4 299/3/4
f 297/3/4 298/3/4 299/3/4
f 296/3/4 297/3/4 299/3/4
f 299/3/4 298/3/4 300/3/4
f 301/3/4 302/3/4 304/3/4
f 302/2/4 303/2/4 305/2/4
f 304/3/4 302/3/4 305/3/4
f 305/2/4 303/2/4 306/2/4
f 304/2/4 305/2/4 307/2/4
f 305/3/4 306/3/4 308/3/4
f 307/2/4 305/2/4 308/2/4
f 308/3/4 306/3/4 309/3/4
f 312/2/5 311/2/5 310/2/5
f 313/2/5 311/2/5 312/2/5
f 314/2/5 312/2/5 310/2/5
f 315/2/5 312/2/5 314/2/5
f 316/1/5 313/1/5 312/1/5
f 316/2/5 312/2/5 315/2/5
f 317/1/5 313/1/5 316/1/5
f 318/1/5 315/1/5 314/1/5
f 319/2/5 316/2/5 315/2/5
f 319/1/5 315/1/5 318/1/5
f 319/2/5 317/2/5 316/2/5
f 320/2/5 317/2/5 319/2/5
f 321/2/5 319/2/5 318/2/5
f 322/1/5 320/1/5 319/1/5
f 322/2/5 319/2/5 321/2/5
f 323/1/5 320/1/5 322/1/5
f 328/2/5 327/2/5 326/2/5
f 329/2/5 325/2/5 324/2/5
f 330/2/5 325/2/5 329/2/5
f 331/2/5 327/2/5 328/2/5
f 332/1/5 330/1/5 329/1/5
f 333/2/5 327/2/5 331/2/5
f 334/2/5 327/2/5 333/2/5
f 335/1/5 332/1/5 329/1/5
f 336/1/5 332/1/5 335/1/5
f 338/1/5 334/1/5 333/1/5
f 339/1/5 334/1/5 338/1/5
f 340/2/5 337/2/5 336/2/5
f 340/1/5 338/1/5 337/1/5
f 341/1/5 338/1/5 340/1/5
f 342/1/5 338/1/5 341/1/5
f 343/2/5 340/2/5 336/2/5
f 343/2/5 341/2/5 340/2/5
f 344/2/5 341/2/5 343/2/5
f 345/3/5 342/3/5 341/3/5
f 345/2/5 341/2/5 344/2/5
f 346/3/5 342/3/5 345/3/5
f 347/2/5 345/2/5 344/2/5
f 348/2/5 345/2/5 347/2/5
f 353/2/5 350/2/5 349/2/5
f 354/2/5 350/2/5 353/2/5
f 355/1/5 354/1/5 353/1/5
f 356/2/5 352/2/5 351/2/5
f 357/2/5 352/2/5 356/2/5
f 358/2/5 356/2/5 351/2/5
f 359/1/5 357/1/5 356/1/5
f 359/2/5 356/2/5 358/2/5
f 360/1/5 355/1/5 353/1/5
f 361/1/5 355/1/5 360/1/5
f 362/1/5 355/1/5 361/1/5
f 365/1/5 359/1/5 358/1/5
f 366/1/5 357/1/5 359/1/5
f 366/1/5 359/1/5 365/1/5
f 367/1/5 357/1/5 366/1/5
f 368/3/5 363/3/5 362/3/5
f 368/2/5 362/2/5 361/2/5
f 369/3/5 363/3/5 368/3/5
f 370/1/5 365/1/5 364/1/5
f 370/1/5 366/1/5 365/1/5
f 371/1/5 366/1/5 370/1/5
f 372/1/5 366/1/5 371/1/5
f 373/2/5 369/2/5 368/2/5
f 373/2/5 368/2/5 361/2/5
f 374/2/5 369/2/5 373/2/5
f 377/2/5 371/2/5 370/2/5
f 378/3/5 372/3/5 371/3/5
f 378/2/5 371/2/5 377/2/5
f 379/3/5 372/3/5 378/3/5
f 380/3/5 375/3/5 374/3/5
f 381/3/5 375/3/5 380/3/5
f 382/3/5 377/3/5 376/3/5
f 383/3/5 377/3/5 382/3/5
f 384/2/5 382/2/5 381/2/5
f 385/2/5 382/2/5 384/2/5
f 390/3/5 387/3/5 386/3/5
f 391/3/5 387/3/5 390/3/5
f 394/3/5 389/3/5 388/3/5
f 395/3/5 389/3/5 394/3/5
f 396/3/5 392/3/5 391/3/5
f 397/3/5 392/3/5 396/3/5
f 399/3/5 394/3/5 393/3/5
f 400/3/5 394/3/5 399/3/5
f 401/3/5 398/3/5 397/3/5
f 402/2/5 399/2/5 398/2/5
f 402/3/5 398/3/5 401/3/5
f 403/2/5 399/2/5 402/2/5
f 404/2/6 405/2/6 408/2/6
f 406/2/6 407/2/6 409/2/6
f 404/2/6 408/2/6 410/2/6
f 410/2/6 408/2/6 411/2/6
f 409/2/6 407/2/6 414/2/6
f 414/2/6 407/2/6 415/2/6
f 411/1/6 412/1/6 416/1/6
f 416/1/6 412/1/6 417/1/6
f 413/2/6 414/2/6 418/2/6
f 418/2/6 414/2/6 419/2/6
f 416/3/6 417/3/6 420/3/6
f 420/3/6 417/3/6 421/3/6
f 418/3/6 419/3/6 422/3/6
f 422/3/6 419/3/6 423/3/6
f 424/2/6 425/2/6 427/2/6
f 425/3/6 426/3/6 428/3/6
f 427/2/6 425/2/6 428/2/6
f 428/3/6 426/3/6 429/3/6
f 430/2/6 431/2/6 434/2/6
f 430/2/6 434/2/6 435/2/6
f 435/2/6 434/2/6 436/2/6
f 432/2/6 433/2/6 437/2/6
f 437/2/6 433/2/6 438/2/6
f 435/1/6 436/1/6 439/1/6
f 439/1/6 436/1/6 440/1/6
f 437/1/6 438/1/6 443/1/6
f 443/1/6 438/1/6 444/1/6
f 440/3/6 441/3/6 445/3/6
f 440/3/6 445/3/6 446/3/6
f 440/3/6 446/3/6 447/3/6
f 447/3/6 446/3/6 448/3/6
f 442/3/6 443/3/6 451/3/6
f 451/3/6 443/3/6 452/3/6
f 448/3/6 449/3/6 453/3/6
f 449/2/6 450/2/6 454/2/6
f 453/3/6 449/3/6 454/3/6
f 450/3/6 451/3/6 455/3/6
f 454/2/6 450/2/6 455/2/6
f 455/3/6 451/3/6 456/3/6
f 457/2/6 458/2/6 461/2/6
f 461/2/6 458/2/6 462/2/6
f 459/3/6 460/3/6 463/3/6
f 461/3/6 462/3/6 464/3/6
f 461/3/6 464/3/6 465/3/6
f 465/3/6 464/3/6 466/3/6
f 463/3/6 460/3/6 469/3/6
f 469/3/6 460/3/6 470/3/6
f 466/3/6 467/3/6 471/3/6
f 467/2/6 468/2/6 472/2/6
f 471/3/6 467/3/6 472/3/6
f 471/2/6 472/2/6 473/2/6
f 472/2/6 468/2/6 474/2/6
f 473/2/6 472/2/6 474/2/6
f 473/3/6 474/3/6 475/3/6
f 474/2/6 468/2/6 476/2/6
f 475/3/6 474/3/6 476/3/6
f 468/3/6 469/3/6 477/3/6
f 476/2/6 468/2/6 477/2/6
f 477/3/6 469/3/6 478/3/6
f 479/3/6 480/3/6 482/3/6
f 480/2/6 481/2/6 483/2/6
f 482/3/6 480/3/6 483/3/6
f 483/2/6 481/2/6 484/2/6
f 484/2/6 481/2/6 485/2/6
f 482/2/6 483/2/6 486/2/6
f 483/2/6 484/2/6 486/2/6
f 486/2/6 484/2/6 487/2/6
f 486/3/6 487/3/6 488/3/6
f 487/2/6 484/2/6 489/2/6
f 488/3/6 487/3/6 489/3/6
f 484/3/6 485/3/6 490/3/6
f 489/2/6 484/2/6 490/2/6
f 490/3/6 485/3/6 491/3/6
