# MagicaVoxel @ Ephtracy

# group
o 

# material
mtllib Plane04-2.mtl
usemtl palette

# normals
vn 0 -1 0
vn 0 1 0
vn -1 0 0
vn 1 0 0
vn 0 0 1
vn 0 0 -1

# texcoords
vt 0.751953 0.5
vt 0.755859 0.5
vt 0.759766 0.5

# verts
v -0.9 3 1.6
v -0.8 3 1.6
v -0.1 3 1.6
v 0 3 1.6
v -0.9 3 1.5
v -0.8 3 1.5
v -0.1 3 1.5
v 0 3 1.5
v -0.9 3.1 1.7
v -0.8 3.1 1.7
v -0.1 3.1 1.7
v 0 3.1 1.7
v -0.9 3.1 1.6
v -0.8 3.1 1.6
v -0.1 3.1 1.6
v 0 3.1 1.6
v -0.9 3.2 1.8
v -0.8 3.2 1.8
v -0.1 3.2 1.8
v 0 3.2 1.8
v -0.9 3.2 1.7
v -0.8 3.2 1.7
v -0.1 3.2 1.7
v 0 3.2 1.7
v -0.9 3.3 1.9
v -0.8 3.3 1.9
v -0.1 3.3 1.9
v 0 3.3 1.9
v -0.9 3.3 1.8
v -0.8 3.3 1.8
v -0.1 3.3 1.8
v 0 3.3 1.8
v -0.9 3.4 2
v -0.8 3.4 2
v -0.1 3.4 2
v 0 3.4 2
v -0.9 3.4 1.9
v -0.8 3.4 1.9
v -0.1 3.4 1.9
v 0 3.4 1.9
v -0.9 3.5 2.1
v -0.8 3.5 2.1
v -0.1 3.5 2.1
v 0 3.5 2.1
v -0.9 3.5 2
v -0.8 3.5 2
v -0.1 3.5 2
v 0 3.5 2
v -0.9 3.1 1.6
v -0.8 3.1 1.6
v -0.1 3.1 1.6
v 0 3.1 1.6
v -0.9 3.1 1.5
v -0.8 3.1 1.5
v -0.1 3.1 1.5
v 0 3.1 1.5
v -0.9 3.2 1.7
v -0.8 3.2 1.7
v -0.1 3.2 1.7
v 0 3.2 1.7
v -0.9 3.2 1.6
v -0.8 3.2 1.6
v -0.1 3.2 1.6
v 0 3.2 1.6
v -0.9 3.3 1.8
v -0.8 3.3 1.8
v -0.1 3.3 1.8
v 0 3.3 1.8
v -0.9 3.3 1.7
v -0.8 3.3 1.7
v -0.1 3.3 1.7
v 0 3.3 1.7
v -0.9 3.4 1.9
v -0.8 3.4 1.9
v -0.1 3.4 1.9
v 0 3.4 1.9
v -0.9 3.4 1.8
v -0.8 3.4 1.8
v -0.1 3.4 1.8
v 0 3.4 1.8
v -0.9 3.5 2
v -0.8 3.5 2
v -0.1 3.5 2
v 0 3.5 2
v -0.9 3.5 1.9
v -0.8 3.5 1.9
v -0.1 3.5 1.9
v 0 3.5 1.9
v -0.9 3.6 2.1
v -0.8 3.6 2.1
v -0.1 3.6 2.1
v 0 3.6 2.1
v -0.9 3.6 2
v -0.8 3.6 2
v -0.1 3.6 2
v 0 3.6 2
v -0.9 3 1.6
v -0.9 3 1.5
v -0.9 3.1 1.7
v -0.9 3.1 1.6
v -0.9 3.1 1.5
v -0.9 3.2 1.8
v -0.9 3.2 1.7
v -0.9 3.2 1.6
v -0.9 3.3 1.9
v -0.9 3.3 1.8
v -0.9 3.3 1.7
v -0.9 3.4 2
v -0.9 3.4 1.9
v -0.9 3.4 1.8
v -0.9 3.5 2.1
v -0.9 3.5 2
v -0.9 3.5 1.9
v -0.9 3.6 2.1
v -0.9 3.6 2
v -0.1 3 1.6
v -0.1 3 1.5
v -0.1 3.1 1.7
v -0.1 3.1 1.6
v -0.1 3.1 1.5
v -0.1 3.2 1.8
v -0.1 3.2 1.7
v -0.1 3.2 1.6
v -0.1 3.3 1.9
v -0.1 3.3 1.8
v -0.1 3.3 1.7
v -0.1 3.4 2
v -0.1 3.4 1.9
v -0.1 3.4 1.8
v -0.1 3.5 2.1
v -0.1 3.5 2
v -0.1 3.5 1.9
v -0.1 3.6 2.1
v -0.1 3.6 2
v -0.8 3 1.6
v -0.8 3 1.5
v -0.8 3.1 1.7
v -0.8 3.1 1.6
v -0.8 3.1 1.5
v -0.8 3.2 1.8
v -0.8 3.2 1.7
v -0.8 3.2 1.6
v -0.8 3.3 1.9
v -0.8 3.3 1.8
v -0.8 3.3 1.7
v -0.8 3.4 2
v -0.8 3.4 1.9
v -0.8 3.4 1.8
v -0.8 3.5 2.1
v -0.8 3.5 2
v -0.8 3.5 1.9
v -0.8 3.6 2.1
v -0.8 3.6 2
v 0 3 1.6
v 0 3 1.5
v 0 3.1 1.7
v 0 3.1 1.6
v 0 3.1 1.5
v 0 3.2 1.8
v 0 3.2 1.7
v 0 3.2 1.6
v 0 3.3 1.9
v 0 3.3 1.8
v 0 3.3 1.7
v 0 3.4 2
v 0 3.4 1.9
v 0 3.4 1.8
v 0 3.5 2.1
v 0 3.5 2
v 0 3.5 1.9
v 0 3.6 2.1
v 0 3.6 2
v -0.9 3.5 2.1
v -0.9 3.6 2.1
v -0.8 3.5 2.1
v -0.8 3.6 2.1
v -0.1 3.5 2.1
v -0.1 3.6 2.1
v 0 3.5 2.1
v 0 3.6 2.1
v -0.9 3.4 2
v -0.9 3.5 2
v -0.8 3.4 2
v -0.8 3.5 2
v -0.1 3.4 2
v -0.1 3.5 2
v 0 3.4 2
v 0 3.5 2
v -0.9 3.3 1.9
v -0.9 3.4 1.9
v -0.8 3.3 1.9
v -0.8 3.4 1.9
v -0.1 3.3 1.9
v -0.1 3.4 1.9
v 0 3.3 1.9
v 0 3.4 1.9
v -0.9 3.2 1.8
v -0.9 3.3 1.8
v -0.8 3.2 1.8
v -0.8 3.3 1.8
v -0.1 3.2 1.8
v -0.1 3.3 1.8
v 0 3.2 1.8
v 0 3.3 1.8
v -0.9 3.1 1.7
v -0.9 3.2 1.7
v -0.8 3.1 1.7
v -0.8 3.2 1.7
v -0.1 3.1 1.7
v -0.1 3.2 1.7
v 0 3.1 1.7
v 0 3.2 1.7
v -0.9 3 1.6
v -0.9 3.1 1.6
v -0.8 3 1.6
v -0.8 3.1 1.6
v -0.1 3 1.6
v -0.1 3.1 1.6
v 0 3 1.6
v 0 3.1 1.6
v -0.9 3.5 2
v -0.9 3.6 2
v -0.8 3.5 2
v -0.8 3.6 2
v -0.1 3.5 2
v -0.1 3.6 2
v 0 3.5 2
v 0 3.6 2
v -0.9 3.4 1.9
v -0.9 3.5 1.9
v -0.8 3.4 1.9
v -0.8 3.5 1.9
v -0.1 3.4 1.9
v -0.1 3.5 1.9
v 0 3.4 1.9
v 0 3.5 1.9
v -0.9 3.3 1.8
v -0.9 3.4 1.8
v -0.8 3.3 1.8
v -0.8 3.4 1.8
v -0.1 3.3 1.8
v -0.1 3.4 1.8
v 0 3.3 1.8
v 0 3.4 1.8
v -0.9 3.2 1.7
v -0.9 3.3 1.7
v -0.8 3.2 1.7
v -0.8 3.3 1.7
v -0.1 3.2 1.7
v -0.1 3.3 1.7
v 0 3.2 1.7
v 0 3.3 1.7
v -0.9 3.1 1.6
v -0.9 3.2 1.6
v -0.8 3.1 1.6
v -0.8 3.2 1.6
v -0.1 3.1 1.6
v -0.1 3.2 1.6
v 0 3.1 1.6
v 0 3.2 1.6
v -0.9 3 1.5
v -0.9 3.1 1.5
v -0.8 3 1.5
v -0.8 3.1 1.5
v -0.1 3 1.5
v -0.1 3.1 1.5
v 0 3 1.5
v 0 3.1 1.5

# faces
f 5/2/1 2/2/1 1/2/1
f 6/2/1 2/2/1 5/2/1
f 7/1/1 4/1/1 3/1/1
f 8/1/1 4/1/1 7/1/1
f 13/1/1 10/1/1 9/1/1
f 14/1/1 10/1/1 13/1/1
f 15/3/1 12/3/1 11/3/1
f 16/3/1 12/3/1 15/3/1
f 21/3/1 18/3/1 17/3/1
f 22/3/1 18/3/1 21/3/1
f 23/2/1 20/2/1 19/2/1
f 24/2/1 20/2/1 23/2/1
f 29/1/1 26/1/1 25/1/1
f 30/1/1 26/1/1 29/1/1
f 31/2/1 28/2/1 27/2/1
f 32/2/1 28/2/1 31/2/1
f 37/2/1 34/2/1 33/2/1
f 38/2/1 34/2/1 37/2/1
f 39/1/1 36/1/1 35/1/1
f 40/1/1 36/1/1 39/1/1
f 45/1/1 42/1/1 41/1/1
f 46/1/1 42/1/1 45/1/1
f 47/1/1 44/1/1 43/1/1
f 48/1/1 44/1/1 47/1/1
f 49/2/2 50/2/2 53/2/2
f 53/2/2 50/2/2 54/2/2
f 51/1/2 52/1/2 55/1/2
f 55/1/2 52/1/2 56/1/2
f 57/1/2 58/1/2 61/1/2
f 61/1/2 58/1/2 62/1/2
f 59/3/2 60/3/2 63/3/2
f 63/3/2 60/3/2 64/3/2
f 65/3/2 66/3/2 69/3/2
f 69/3/2 66/3/2 70/3/2
f 67/2/2 68/2/2 71/2/2
f 71/2/2 68/2/2 72/2/2
f 73/1/2 74/1/2 77/1/2
f 77/1/2 74/1/2 78/1/2
f 75/2/2 76/2/2 79/2/2
f 79/2/2 76/2/2 80/2/2
f 81/2/2 82/2/2 85/2/2
f 85/2/2 82/2/2 86/2/2
f 83/1/2 84/1/2 87/1/2
f 87/1/2 84/1/2 88/1/2
f 89/1/2 90/1/2 93/1/2
f 93/1/2 90/1/2 94/1/2
f 91/1/2 92/1/2 95/1/2
f 95/1/2 92/1/2 96/1/2
f 100/2/3 98/2/3 97/2/3
f 101/2/3 98/2/3 100/2/3
f 103/1/3 100/1/3 99/1/3
f 104/1/3 100/1/3 103/1/3
f 106/3/3 103/3/3 102/3/3
f 107/3/3 103/3/3 106/3/3
f 109/1/3 106/1/3 105/1/3
f 110/1/3 106/1/3 109/1/3
f 112/2/3 109/2/3 108/2/3
f 113/2/3 109/2/3 112/2/3
f 114/1/3 112/1/3 111/1/3
f 115/1/3 112/1/3 114/1/3
f 119/1/3 117/1/3 116/1/3
f 120/1/3 117/1/3 119/1/3
f 122/3/3 119/3/3 118/3/3
f 123/3/3 119/3/3 122/3/3
f 125/2/3 122/2/3 121/2/3
f 126/2/3 122/2/3 125/2/3
f 128/2/3 125/2/3 124/2/3
f 129/2/3 125/2/3 128/2/3
f 131/1/3 128/1/3 127/1/3
f 132/1/3 128/1/3 131/1/3
f 133/1/3 131/1/3 130/1/3
f 134/1/3 131/1/3 133/1/3
f 135/2/4 136/2/4 138/2/4
f 138/2/4 136/2/4 139/2/4
f 137/1/4 138/1/4 141/1/4
f 141/1/4 138/1/4 142/1/4
f 140/3/4 141/3/4 144/3/4
f 144/3/4 141/3/4 145/3/4
f 143/1/4 144/1/4 147/1/4
f 147/1/4 144/1/4 148/1/4
f 146/2/4 147/2/4 150/2/4
f 150/2/4 147/2/4 151/2/4
f 149/1/4 150/1/4 152/1/4
f 152/1/4 150/1/4 153/1/4
f 154/1/4 155/1/4 157/1/4
f 157/1/4 155/1/4 158/1/4
f 156/3/4 157/3/4 160/3/4
f 160/3/4 157/3/4 161/3/4
f 159/2/4 160/2/4 163/2/4
f 163/2/4 160/2/4 164/2/4
f 162/2/4 163/2/4 166/2/4
f 166/2/4 163/2/4 167/2/4
f 165/1/4 166/1/4 169/1/4
f 169/1/4 166/1/4 170/1/4
f 168/1/4 169/1/4 171/1/4
f 171/1/4 169/1/4 172/1/4
f 175/1/5 174/1/5 173/1/5
f 176/1/5 174/1/5 175/1/5
f 179/1/5 178/1/5 177/1/5
f 180/1/5 178/1/5 179/1/5
f 183/2/5 182/2/5 181/2/5
f 184/2/5 182/2/5 183/2/5
f 187/1/5 186/1/5 185/1/5
f 188/1/5 186/1/5 187/1/5
f 191/1/5 190/1/5 189/1/5
f 192/1/5 190/1/5 191/1/5
f 195/2/5 194/2/5 193/2/5
f 196/2/5 194/2/5 195/2/5
f 199/3/5 198/3/5 197/3/5
f 200/3/5 198/3/5 199/3/5
f 203/2/5 202/2/5 201/2/5
f 204/2/5 202/2/5 203/2/5
f 207/1/5 206/1/5 205/1/5
f 208/1/5 206/1/5 207/1/5
f 211/3/5 210/3/5 209/3/5
f 212/3/5 210/3/5 211/3/5
f 215/2/5 214/2/5 213/2/5
f 216/2/5 214/2/5 215/2/5
f 219/1/5 218/1/5 217/1/5
f 220/1/5 218/1/5 219/1/5
f 221/1/6 222/1/6 223/1/6
f 223/1/6 222/1/6 224/1/6
f 225/1/6 226/1/6 227/1/6
f 227/1/6 226/1/6 228/1/6
f 229/2/6 230/2/6 231/2/6
f 231/2/6 230/2/6 232/2/6
f 233/1/6 234/1/6 235/1/6
f 235/1/6 234/1/6 236/1/6
f 237/1/6 238/1/6 239/1/6
f 239/1/6 238/1/6 240/1/6
f 241/2/6 242/2/6 243/2/6
f 243/2/6 242/2/6 244/2/6
f 245/3/6 246/3/6 247/3/6
f 247/3/6 246/3/6 248/3/6
f 249/2/6 250/2/6 251/2/6
f 251/2/6 250/2/6 252/2/6
f 253/1/6 254/1/6 255/1/6
f 255/1/6 254/1/6 256/1/6
f 257/3/6 258/3/6 259/3/6
f 259/3/6 258/3/6 260/3/6
f 261/2/6 262/2/6 263/2/6
f 263/2/6 262/2/6 264/2/6
f 265/1/6 266/1/6 267/1/6
f 267/1/6 266/1/6 268/1/6
