# MagicaVoxel @ Ephtracy

# group
o 

# material
mtllib Plane04-17.mtl
usemtl palette

# normals
vn 0 0 1
vn 0 0 -1
vn 1 0 0
vn -1 0 0
vn 0 -1 0
vn 0 1 0

# texcoords
vt 0.783203 0.5
vt 0.884766 0.5
vt 0.892578 0.5

# verts
v -12.2 0.5 3.2
v -12.3 0.5 3.2
v -12.2 0.6 3.2
v -12.3 0.6 3.2
v -12.2 0.7 3.2
v -12.3 0.7 3.2
v -12.2 0.4 3.1
v -12.3 0.4 3.1
v -12.2 0.5 3.1
v -12.3 0.5 3.1
v -12.2 0.7 2.8
v -12.3 0.7 2.8
v -12.2 0.8 2.8
v -12.3 0.8 2.8
v -12.2 0.7 1.9
v -12.3 0.7 1.9
v -12.2 0.8 1.9
v -12.3 0.8 1.9
v -12.2 0.6 1.5
v -12.3 0.6 1.5
v -12.2 0.7 1.5
v -12.3 0.7 1.5
v -12.2 0.8 1.3
v -12.3 0.8 1.3
v -12.2 0.9 1.3
v -12.3 0.9 1.3
v -12.2 0.9 1
v -12.3 0.9 1
v -12.2 1 1
v -12.3 1 1
v -12.2 0.4 2.8
v -12.3 0.4 2.8
v -12.2 0.5 2.8
v -12.3 0.5 2.8
v -12.2 0.5 2.5
v -12.3 0.5 2.5
v -12.2 0.6 2.5
v -12.3 0.6 2.5
v -12.2 0.7 2.3
v -12.3 0.7 2.3
v -12.2 0.8 2.3
v -12.3 0.8 2.3
v -12.2 0.6 1.9
v -12.3 0.6 1.9
v -12.2 0.7 1.9
v -12.3 0.7 1.9
v -12.2 0.6 1
v -12.3 0.6 1
v -12.2 0.7 1
v -12.3 0.7 1
v -12.2 0.9 0.7
v -12.3 0.9 0.7
v -12.2 1 0.7
v -12.3 1 0.7
v -12.2 0.7 0.6
v -12.3 0.7 0.6
v -12.2 0.8 0.6
v -12.3 0.8 0.6
v -12.2 0.9 0.6
v -12.3 0.9 0.6
v -12.2 0.5 3.2
v -12.2 0.6 3.2
v -12.2 0.7 3.2
v -12.2 0.4 3.1
v -12.2 0.5 3.1
v -12.2 0.6 3.1
v -12.2 0.7 3.1
v -12.2 0.4 3
v -12.2 0.7 3
v -12.2 0.4 2.8
v -12.2 0.5 2.8
v -12.2 0.7 2.8
v -12.2 0.8 2.8
v -12.2 0.5 2.5
v -12.2 0.6 2.5
v -12.2 0.7 2.3
v -12.2 0.8 2.3
v -12.2 0.6 1.9
v -12.2 0.7 1.9
v -12.2 0.8 1.9
v -12.2 0.6 1.5
v -12.2 0.7 1.5
v -12.2 0.8 1.3
v -12.2 0.9 1.3
v -12.2 0.6 1
v -12.2 0.7 1
v -12.2 0.9 1
v -12.2 1 1
v -12.2 0.7 0.8
v -12.2 1 0.8
v -12.2 0.7 0.7
v -12.2 0.8 0.7
v -12.2 0.9 0.7
v -12.2 1 0.7
v -12.2 0.7 0.6
v -12.2 0.8 0.6
v -12.2 0.9 0.6
v -12.3 0.5 3.2
v -12.3 0.6 3.2
v -12.3 0.7 3.2
v -12.3 0.4 3.1
v -12.3 0.5 3.1
v -12.3 0.6 3.1
v -12.3 0.7 3.1
v -12.3 0.4 3
v -12.3 0.7 3
v -12.3 0.4 2.8
v -12.3 0.5 2.8
v -12.3 0.7 2.8
v -12.3 0.8 2.8
v -12.3 0.5 2.5
v -12.3 0.6 2.5
v -12.3 0.7 2.3
v -12.3 0.8 2.3
v -12.3 0.6 1.9
v -12.3 0.7 1.9
v -12.3 0.8 1.9
v -12.3 0.6 1.5
v -12.3 0.7 1.5
v -12.3 0.8 1.3
v -12.3 0.9 1.3
v -12.3 0.6 1
v -12.3 0.7 1
v -12.3 0.9 1
v -12.3 1 1
v -12.3 0.7 0.8
v -12.3 1 0.8
v -12.3 0.7 0.7
v -12.3 0.8 0.7
v -12.3 0.9 0.7
v -12.3 1 0.7
v -12.3 0.7 0.6
v -12.3 0.8 0.6
v -12.3 0.9 0.6
v -12.2 0.4 3.1
v -12.2 0.4 3
v -12.2 0.4 2.8
v -12.3 0.4 3.1
v -12.3 0.4 3
v -12.3 0.4 2.8
v -12.2 0.5 3.2
v -12.2 0.5 3.1
v -12.2 0.5 2.8
v -12.2 0.5 2.5
v -12.3 0.5 3.2
v -12.3 0.5 3.1
v -12.3 0.5 2.8
v -12.3 0.5 2.5
v -12.2 0.6 2.5
v -12.2 0.6 1.9
v -12.2 0.6 1.5
v -12.2 0.6 1
v -12.3 0.6 2.5
v -12.3 0.6 1.9
v -12.3 0.6 1.5
v -12.3 0.6 1
v -12.2 0.7 1.9
v -12.2 0.7 1.5
v -12.2 0.7 1
v -12.2 0.7 0.8
v -12.2 0.7 0.7
v -12.2 0.7 0.6
v -12.3 0.7 1.9
v -12.3 0.7 1.5
v -12.3 0.7 1
v -12.3 0.7 0.8
v -12.3 0.7 0.7
v -12.3 0.7 0.6
v -12.2 0.7 3.2
v -12.2 0.7 3.1
v -12.2 0.7 3
v -12.2 0.7 2.8
v -12.2 0.7 2.3
v -12.2 0.7 1.9
v -12.3 0.7 3.2
v -12.3 0.7 3.1
v -12.3 0.7 3
v -12.3 0.7 2.8
v -12.3 0.7 2.3
v -12.3 0.7 1.9
v -12.2 0.8 2.8
v -12.2 0.8 2.3
v -12.2 0.8 1.9
v -12.2 0.8 1.3
v -12.3 0.8 2.8
v -12.3 0.8 2.3
v -12.3 0.8 1.9
v -12.3 0.8 1.3
v -12.2 0.9 1.3
v -12.2 0.9 1
v -12.2 0.9 0.7
v -12.2 0.9 0.6
v -12.3 0.9 1.3
v -12.3 0.9 1
v -12.3 0.9 0.7
v -12.3 0.9 0.6
v -12.2 1 1
v -12.2 1 0.8
v -12.2 1 0.7
v -12.3 1 1
v -12.3 1 0.8
v -12.3 1 0.7

# faces
f 3/2/1 2/2/1 1/2/1
f 4/2/1 2/2/1 3/2/1
f 5/1/1 4/1/1 3/1/1
f 6/1/1 4/1/1 5/1/1
f 9/2/1 8/2/1 7/2/1
f 10/2/1 8/2/1 9/2/1
f 13/3/1 12/3/1 11/3/1
f 14/3/1 12/3/1 13/3/1
f 17/3/1 16/3/1 15/3/1
f 18/3/1 16/3/1 17/3/1
f 21/3/1 20/3/1 19/3/1
f 22/3/1 20/3/1 21/3/1
f 25/3/1 24/3/1 23/3/1
f 26/3/1 24/3/1 25/3/1
f 29/3/1 28/3/1 27/3/1
f 30/3/1 28/3/1 29/3/1
f 31/3/2 32/3/2 33/3/2
f 33/3/2 32/3/2 34/3/2
f 35/3/2 36/3/2 37/3/2
f 37/3/2 36/3/2 38/3/2
f 39/3/2 40/3/2 41/3/2
f 41/3/2 40/3/2 42/3/2
f 43/3/2 44/3/2 45/3/2
f 45/3/2 44/3/2 46/3/2
f 47/3/2 48/3/2 49/3/2
f 49/3/2 48/3/2 50/3/2
f 51/2/2 52/2/2 53/2/2
f 53/2/2 52/2/2 54/2/2
f 55/1/2 56/1/2 57/1/2
f 57/1/2 56/1/2 58/1/2
f 57/2/2 58/2/2 59/2/2
f 59/2/2 58/2/2 60/2/2
f 65/2/3 62/2/3 61/2/3
f 66/1/3 63/1/3 62/1/3
f 66/2/3 62/2/3 65/2/3
f 67/1/3 63/1/3 66/1/3
f 68/2/3 65/2/3 64/2/3
f 68/2/3 66/2/3 65/2/3
f 68/2/3 67/2/3 66/2/3
f 69/2/3 67/2/3 68/2/3
f 70/3/3 69/3/3 68/3/3
f 71/3/3 69/3/3 70/3/3
f 72/3/3 69/3/3 71/3/3
f 74/3/3 72/3/3 71/3/3
f 74/3/3 73/3/3 72/3/3
f 75/3/3 73/3/3 74/3/3
f 76/3/3 73/3/3 75/3/3
f 77/3/3 73/3/3 76/3/3
f 78/3/3 76/3/3 75/3/3
f 79/3/3 76/3/3 78/3/3
f 82/3/3 80/3/3 79/3/3
f 83/3/3 80/3/3 82/3/3
f 83/3/3 82/3/3 81/3/3
f 85/3/3 83/3/3 81/3/3
f 85/3/3 84/3/3 83/3/3
f 86/3/3 84/3/3 85/3/3
f 87/3/3 84/3/3 86/3/3
f 89/3/3 88/3/3 87/3/3
f 89/3/3 87/3/3 86/3/3
f 90/3/3 88/3/3 89/3/3
f 91/2/3 90/2/3 89/2/3
f 92/2/3 90/2/3 91/2/3
f 93/2/3 90/2/3 92/2/3
f 94/2/3 90/2/3 93/2/3
f 95/1/3 92/1/3 91/1/3
f 96/2/3 93/2/3 92/2/3
f 96/1/3 92/1/3 95/1/3
f 97/2/3 93/2/3 96/2/3
f 98/2/4 99/2/4 102/2/4
f 99/1/4 100/1/4 103/1/4
f 102/2/4 99/2/4 103/2/4
f 103/1/4 100/1/4 104/1/4
f 101/2/4 102/2/4 105/2/4
f 102/2/4 103/2/4 105/2/4
f 103/2/4 104/2/4 105/2/4
f 105/2/4 104/2/4 106/2/4
f 105/3/4 106/3/4 107/3/4
f 107/3/4 106/3/4 108/3/4
f 108/3/4 106/3/4 109/3/4
f 108/3/4 109/3/4 111/3/4
f 109/3/4 110/3/4 111/3/4
f 111/3/4 110/3/4 112/3/4
f 112/3/4 110/3/4 113/3/4
f 113/3/4 110/3/4 114/3/4
f 112/3/4 113/3/4 115/3/4
f 115/3/4 113/3/4 116/3/4
f 116/3/4 117/3/4 119/3/4
f 119/3/4 117/3/4 120/3/4
f 118/3/4 119/3/4 120/3/4
f 118/3/4 120/3/4 122/3/4
f 120/3/4 121/3/4 122/3/4
f 122/3/4 121/3/4 123/3/4
f 123/3/4 121/3/4 124/3/4
f 124/3/4 125/3/4 126/3/4
f 123/3/4 124/3/4 126/3/4
f 126/3/4 125/3/4 127/3/4
f 126/2/4 127/2/4 128/2/4
f 128/2/4 127/2/4 129/2/4
f 129/2/4 127/2/4 130/2/4
f 130/2/4 127/2/4 131/2/4
f 128/1/4 129/1/4 132/1/4
f 129/2/4 130/2/4 133/2/4
f 132/1/4 129/1/4 133/1/4
f 133/2/4 130/2/4 134/2/4
f 138/2/5 136/2/5 135/2/5
f 139/3/5 137/3/5 136/3/5
f 139/2/5 136/2/5 138/2/5
f 140/3/5 137/3/5 139/3/5
f 145/2/5 142/2/5 141/2/5
f 146/2/5 142/2/5 145/2/5
f 147/3/5 144/3/5 143/3/5
f 148/3/5 144/3/5 147/3/5
f 153/3/5 150/3/5 149/3/5
f 154/3/5 150/3/5 153/3/5
f 155/3/5 152/3/5 151/3/5
f 156/3/5 152/3/5 155/3/5
f 163/3/5 158/3/5 157/3/5
f 164/3/5 158/3/5 163/3/5
f 165/3/5 160/3/5 159/3/5
f 166/2/5 161/2/5 160/2/5
f 166/3/5 160/3/5 165/3/5
f 167/1/5 162/1/5 161/1/5
f 167/2/5 161/2/5 166/2/5
f 168/1/5 162/1/5 167/1/5
f 169/1/6 170/1/6 175/1/6
f 170/2/6 171/2/6 176/2/6
f 175/1/6 170/1/6 176/1/6
f 171/3/6 172/3/6 177/3/6
f 176/2/6 171/2/6 177/2/6
f 177/3/6 172/3/6 178/3/6
f 173/3/6 174/3/6 179/3/6
f 179/3/6 174/3/6 180/3/6
f 181/3/6 182/3/6 185/3/6
f 185/3/6 182/3/6 186/3/6
f 183/3/6 184/3/6 187/3/6
f 187/3/6 184/3/6 188/3/6
f 189/3/6 190/3/6 193/3/6
f 193/3/6 190/3/6 194/3/6
f 191/2/6 192/2/6 195/2/6
f 195/2/6 192/2/6 196/2/6
f 197/3/6 198/3/6 200/3/6
f 198/2/6 199/2/6 201/2/6
f 200/3/6 198/3/6 201/3/6
f 201/2/6 199/2/6 202/2/6
