# MagicaVoxel @ Ephtracy

# group
o 

# material
mtllib Plane04-34.mtl
usemtl palette

# normals
vn -1 0 0
vn 1 0 0
vn 0 0 1
vn 0 0 -1
vn 0 -1 0
vn 0 1 0

# texcoords
vt 0.939453 0.5
vt 0.943359 0.5
vt 0.947266 0.5

# verts
v 9.8 0.6 1.5
v 9.8 0.6 0.7
v 9.8 0.7 1.5
v 9.8 0.7 1.4
v 9.8 0.7 1.3
v 9.8 0.7 0.7
v 9.8 0.8 1.9
v 9.8 0.8 1.5
v 9.8 0.8 1.4
v 9.8 0.8 1.3
v 9.8 1 1.9
v 9.8 1 0.7
v 9.9 0.8 2.3
v 9.9 0.8 2.1
v 9.9 0.8 2
v 9.9 0.8 1.9
v 9.9 0.9 2.1
v 9.9 0.9 2
v 9.9 1 1.9
v 9.9 1 1.7
v 9.9 1 0.9
v 9.9 1 0.7
v 9.9 1.1 2.3
v 9.9 1.1 1.7
v 9.9 1.1 0.9
v 9.9 1.1 0.7
v 10 0.5 1.1
v 10 0.5 0.7
v 10 0.6 2.3
v 10 0.6 1.5
v 10 0.6 1.1
v 10 0.6 0.7
v 10 0.7 2.7
v 10 0.7 2.3
v 10 0.7 1.5
v 10 0.8 2.6
v 10 0.8 2.3
v 10 0.8 2.1
v 10 0.8 2
v 10 0.8 1.5
v 10 0.9 2.7
v 10 0.9 2.6
v 10 1 2.9
v 10 1 2.7
v 10 1 2.5
v 10 1.1 2.9
v 10 1.1 2.7
v 10 1.1 2.5
v 10 1.1 2.3
v 10.2 0.5 1.1
v 10.2 0.5 0.7
v 10.2 0.6 2.3
v 10.2 0.6 1.5
v 10.2 0.6 1.1
v 10.2 0.6 0.7
v 10.2 0.7 2.7
v 10.2 0.7 2.3
v 10.2 0.7 1.5
v 10.2 0.8 2.6
v 10.2 0.8 2.3
v 10.2 0.8 1.5
v 10.2 0.9 2.7
v 10.2 0.9 2.6
v 10.2 0.9 2.5
v 10.2 1 2.9
v 10.2 1 2.7
v 10.2 1 2.6
v 10.2 1 2.5
v 10.2 1 2.3
v 10.2 1.1 2.9
v 10.2 1.1 2.3
v 10.3 0.8 2.3
v 10.3 0.8 1.9
v 10.3 0.9 2.1
v 10.3 0.9 2
v 10.3 1 2.3
v 10.3 1 2.1
v 10.3 1 2
v 10.3 1 1.9
v 10.3 1 1.5
v 10.3 1 0.7
v 10.3 1.1 2.3
v 10.3 1.1 1.5
v 10.3 1.1 0.7
v 10.4 0.6 1.5
v 10.4 0.6 0.7
v 10.4 0.7 1.5
v 10.4 0.7 1.2
v 10.4 0.7 1.1
v 10.4 0.7 0.9
v 10.4 0.7 0.8
v 10.4 0.7 0.7
v 10.4 0.8 1.9
v 10.4 0.8 1.5
v 10.4 0.8 1.2
v 10.4 0.8 1.1
v 10.4 0.8 1
v 10.4 0.8 0.9
v 10.4 0.8 0.8
v 10.4 0.9 1
v 10.4 0.9 0.9
v 10.4 1 1.9
v 10.4 1 0.7
v 10 1 2.9
v 10 1.1 2.9
v 10.2 1 2.9
v 10.2 1.1 2.9
v 10 0.7 2.7
v 10 0.9 2.7
v 10 1 2.7
v 10.2 0.7 2.7
v 10.2 0.9 2.7
v 10.2 1 2.7
v 9.9 0.8 2.3
v 9.9 1.1 2.3
v 10 0.6 2.3
v 10 0.7 2.3
v 10 0.8 2.3
v 10 1.1 2.3
v 10.2 0.6 2.3
v 10.2 0.7 2.3
v 10.2 0.8 2.3
v 10.2 1 2.3
v 10.2 1.1 2.3
v 10.3 0.8 2.3
v 10.3 1 2.3
v 10.3 1.1 2.3
v 9.8 0.8 1.9
v 9.8 1 1.9
v 9.9 0.8 1.9
v 9.9 1 1.9
v 10.3 0.8 1.9
v 10.3 1 1.9
v 10.4 0.8 1.9
v 10.4 1 1.9
v 9.8 0.6 1.5
v 9.8 0.7 1.5
v 9.8 0.8 1.5
v 10 0.6 1.5
v 10 0.7 1.5
v 10 0.8 1.5
v 10.2 0.6 1.5
v 10.2 0.7 1.5
v 10.2 0.8 1.5
v 10.4 0.6 1.5
v 10.4 0.7 1.5
v 10.4 0.8 1.5
v 10 0.5 1.1
v 10 0.6 1.1
v 10.2 0.5 1.1
v 10.2 0.6 1.1
v 9.8 0.6 0.7
v 9.8 0.7 0.7
v 9.8 1 0.7
v 9.9 1 0.7
v 9.9 1.1 0.7
v 10 0.5 0.7
v 10 0.6 0.7
v 10.2 0.5 0.7
v 10.2 0.6 0.7
v 10.3 1 0.7
v 10.3 1.1 0.7
v 10.4 0.6 0.7
v 10.4 0.7 0.7
v 10.4 1 0.7
v 10 0.5 1.1
v 10.2 0.5 1.1
v 10 0.5 0.7
v 10.2 0.5 0.7
v 10 0.6 2.3
v 10.2 0.6 2.3
v 9.8 0.6 1.5
v 10 0.6 1.5
v 10.2 0.6 1.5
v 10.4 0.6 1.5
v 10 0.6 1.1
v 10.2 0.6 1.1
v 9.8 0.6 0.7
v 10 0.6 0.7
v 10.2 0.6 0.7
v 10.4 0.6 0.7
v 10 0.7 2.7
v 10.2 0.7 2.7
v 10 0.7 2.3
v 10.2 0.7 2.3
v 9.9 0.8 2.3
v 10 0.8 2.3
v 10.2 0.8 2.3
v 10.3 0.8 2.3
v 9.9 0.8 2.1
v 10 0.8 2.1
v 9.9 0.8 2
v 10 0.8 2
v 9.8 0.8 1.9
v 9.9 0.8 1.9
v 10.3 0.8 1.9
v 10.4 0.8 1.9
v 9.8 0.8 1.5
v 10 0.8 1.5
v 10.2 0.8 1.5
v 10.4 0.8 1.5
v 10 1 2.9
v 10.2 1 2.9
v 10 1 2.7
v 10.2 1 2.7
v 9.8 1 1.9
v 9.9 1 1.9
v 10.3 1 1.9
v 10.4 1 1.9
v 9.9 1 1.7
v 10.3 1 1.5
v 9.9 1 0.9
v 9.8 1 0.7
v 9.9 1 0.7
v 10.3 1 0.7
v 10.4 1 0.7
v 10 1.1 2.9
v 10.2 1.1 2.9
v 10 1.1 2.7
v 10.1 1.1 2.7
v 10 1.1 2.5
v 10.1 1.1 2.5
v 9.9 1.1 2.3
v 10 1.1 2.3
v 10.2 1.1 2.3
v 10.3 1.1 2.3
v 10 1.1 1.8
v 10.1 1.1 1.8
v 9.9 1.1 1.7
v 10 1.1 1.7
v 10.1 1.1 1.7
v 10.2 1.1 1.5
v 10.3 1.1 1.5
v 9.9 1.1 0.9
v 10 1.1 0.9
v 9.9 1.1 0.7
v 10.3 1.1 0.7

# faces
f 3/1/1 2/1/1 1/1/1
f 4/1/1 2/1/1 3/1/1
f 5/1/1 2/1/1 4/1/1
f 6/1/1 2/1/1 5/1/1
f 8/2/1 4/2/1 3/2/1
f 9/1/1 5/1/1 4/1/1
f 9/2/1 4/2/1 8/2/1
f 10/2/1 6/2/1 5/2/1
f 10/1/1 5/1/1 9/1/1
f 11/2/1 8/2/1 7/2/1
f 11/2/1 9/2/1 8/2/1
f 11/2/1 10/2/1 9/2/1
f 12/2/1 6/2/1 10/2/1
f 12/2/1 10/2/1 11/2/1
f 17/2/1 14/2/1 13/2/1
f 17/1/1 15/1/1 14/1/1
f 18/2/1 16/2/1 15/2/1
f 18/1/1 15/1/1 17/1/1
f 19/2/1 18/2/1 17/2/1
f 19/2/1 16/2/1 18/2/1
f 23/2/1 17/2/1 13/2/1
f 23/2/1 19/2/1 17/2/1
f 23/2/1 20/2/1 19/2/1
f 24/3/1 21/3/1 20/3/1
f 24/2/1 20/2/1 23/2/1
f 25/2/1 22/2/1 21/2/1
f 25/3/1 21/3/1 24/3/1
f 26/2/1 22/2/1 25/2/1
f 31/1/1 28/1/1 27/1/1
f 32/1/1 28/1/1 31/1/1
f 34/1/1 30/1/1 29/1/1
f 35/1/1 30/1/1 34/1/1
f 36/1/1 34/1/1 33/1/1
f 37/2/1 35/2/1 34/2/1
f 37/1/1 34/1/1 36/1/1
f 38/2/1 35/2/1 37/2/1
f 39/2/1 35/2/1 38/2/1
f 40/2/1 35/2/1 39/2/1
f 41/1/1 36/1/1 33/1/1
f 42/2/1 37/2/1 36/2/1
f 42/1/1 36/1/1 41/1/1
f 44/2/1 42/2/1 41/2/1
f 45/2/1 37/2/1 42/2/1
f 45/2/1 42/2/1 44/2/1
f 46/2/1 44/2/1 43/2/1
f 47/3/1 45/3/1 44/3/1
f 47/2/1 44/2/1 46/2/1
f 48/2/1 37/2/1 45/2/1
f 48/3/1 45/3/1 47/3/1
f 49/2/1 37/2/1 48/2/1
f 50/1/2 51/1/2 54/1/2
f 54/1/2 51/1/2 55/1/2
f 52/1/2 53/1/2 57/1/2
f 57/1/2 53/1/2 58/1/2
f 56/1/2 57/1/2 59/1/2
f 57/2/2 58/2/2 60/2/2
f 59/1/2 57/1/2 60/1/2
f 60/2/2 58/2/2 61/2/2
f 56/1/2 59/1/2 62/1/2
f 59/2/2 60/2/2 63/2/2
f 62/1/2 59/1/2 63/1/2
f 63/2/2 60/2/2 64/2/2
f 62/2/2 63/2/2 66/2/2
f 63/1/2 64/1/2 67/1/2
f 66/2/2 63/2/2 67/2/2
f 64/2/2 60/2/2 68/2/2
f 67/1/2 64/1/2 68/1/2
f 68/2/2 60/2/2 69/2/2
f 66/2/2 67/2/2 70/2/2
f 65/2/2 66/2/2 70/2/2
f 68/2/2 69/2/2 70/2/2
f 67/2/2 68/2/2 70/2/2
f 70/2/2 69/2/2 71/2/2
f 72/2/2 73/2/2 74/2/2
f 74/2/2 73/2/2 75/2/2
f 72/2/2 74/2/2 76/2/2
f 74/1/2 75/1/2 77/1/2
f 76/2/2 74/2/2 77/2/2
f 75/2/2 73/2/2 78/2/2
f 77/1/2 75/1/2 78/1/2
f 78/2/2 73/2/2 79/2/2
f 76/3/2 77/3/2 82/3/2
f 77/3/2 78/3/2 82/3/2
f 79/3/2 80/3/2 82/3/2
f 78/3/2 79/3/2 82/3/2
f 80/2/2 81/2/2 83/2/2
f 82/3/2 80/3/2 83/3/2
f 83/2/2 81/2/2 84/2/2
f 85/1/2 86/1/2 87/1/2
f 87/1/2 86/1/2 88/1/2
f 88/1/2 86/1/2 89/1/2
f 89/1/2 86/1/2 90/1/2
f 90/1/2 86/1/2 91/1/2
f 91/1/2 86/1/2 92/1/2
f 87/2/2 88/2/2 94/2/2
f 88/1/2 89/1/2 95/1/2
f 94/2/2 88/2/2 95/2/2
f 89/2/2 90/2/2 96/2/2
f 95/1/2 89/1/2 96/1/2
f 96/2/2 90/2/2 97/2/2
f 90/1/2 91/1/2 98/1/2
f 97/2/2 90/2/2 98/2/2
f 91/2/2 92/2/2 99/2/2
f 98/1/2 91/1/2 99/1/2
f 93/2/2 94/2/2 100/2/2
f 94/2/2 95/2/2 100/2/2
f 96/2/2 97/2/2 100/2/2
f 95/2/2 96/2/2 100/2/2
f 97/1/2 98/1/2 100/1/2
f 98/2/2 99/2/2 101/2/2
f 100/1/2 98/1/2 101/1/2
f 93/2/2 100/2/2 102/2/2
f 100/2/2 101/2/2 102/2/2
f 99/2/2 92/2/2 103/2/2
f 102/2/2 101/2/2 103/2/2
f 101/2/2 99/2/2 103/2/2
f 106/2/3 105/2/3 104/2/3
f 107/2/3 105/2/3 106/2/3
f 111/1/3 109/1/3 108/1/3
f 112/2/3 110/2/3 109/2/3
f 112/1/3 109/1/3 111/1/3
f 113/2/3 110/2/3 112/2/3
f 118/2/3 115/2/3 114/2/3
f 119/2/3 115/2/3 118/2/3
f 120/1/3 117/1/3 116/1/3
f 121/1/3 117/1/3 120/1/3
f 125/2/3 123/2/3 122/2/3
f 126/3/3 124/3/3 123/3/3
f 126/2/3 123/2/3 125/2/3
f 127/3/3 124/3/3 126/3/3
f 130/2/3 129/2/3 128/2/3
f 131/2/3 129/2/3 130/2/3
f 134/2/3 133/2/3 132/2/3
f 135/2/3 133/2/3 134/2/3
f 139/1/3 137/1/3 136/1/3
f 140/2/3 138/2/3 137/2/3
f 140/1/3 137/1/3 139/1/3
f 141/2/3 138/2/3 140/2/3
f 145/1/3 143/1/3 142/1/3
f 146/2/3 144/2/3 143/2/3
f 146/1/3 143/1/3 145/1/3
f 147/2/3 144/2/3 146/2/3
f 150/1/3 149/1/3 148/1/3
f 151/1/3 149/1/3 150/1/3
f 153/2/4 154/2/4 155/2/4
f 152/1/4 153/1/4 158/1/4
f 157/1/4 158/1/4 159/1/4
f 158/1/4 153/1/4 160/1/4
f 159/1/4 158/1/4 160/1/4
f 155/2/4 156/2/4 161/2/4
f 153/2/4 155/2/4 161/2/4
f 161/2/4 156/2/4 162/2/4
f 160/1/4 153/1/4 163/1/4
f 153/2/4 161/2/4 164/2/4
f 163/1/4 153/1/4 164/1/4
f 164/2/4 161/2/4 165/2/4
f 168/1/5 167/1/5 166/1/5
f 169/1/5 167/1/5 168/1/5
f 173/1/5 171/1/5 170/1/5
f 174/1/5 171/1/5 173/1/5
f 176/1/5 173/1/5 172/1/5
f 176/1/5 175/1/5 174/1/5
f 176/1/5 174/1/5 173/1/5
f 177/1/5 175/1/5 176/1/5
f 178/1/5 176/1/5 172/1/5
f 179/1/5 176/1/5 178/1/5
f 180/1/5 175/1/5 177/1/5
f 181/1/5 175/1/5 180/1/5
f 184/1/5 183/1/5 182/1/5
f 185/1/5 183/1/5 184/1/5
f 190/2/5 187/2/5 186/2/5
f 191/2/5 187/2/5 190/2/5
f 192/1/5 191/1/5 190/1/5
f 193/1/5 191/1/5 192/1/5
f 195/2/5 193/2/5 192/2/5
f 196/2/5 189/2/5 188/2/5
f 198/2/5 195/2/5 194/2/5
f 199/2/5 193/2/5 195/2/5
f 199/2/5 195/2/5 198/2/5
f 200/2/5 197/2/5 196/2/5
f 200/2/5 196/2/5 188/2/5
f 201/2/5 197/2/5 200/2/5
f 204/2/5 203/2/5 202/2/5
f 205/2/5 203/2/5 204/2/5
f 206/2/6 207/2/6 210/2/6
f 208/2/6 209/2/6 211/2/6
f 206/2/6 210/2/6 212/2/6
f 206/2/6 212/2/6 213/2/6
f 213/2/6 212/2/6 214/2/6
f 211/2/6 209/2/6 215/2/6
f 215/2/6 209/2/6 216/2/6
f 217/2/6 218/2/6 219/2/6
f 219/2/6 218/2/6 220/2/6
f 219/3/6 220/3/6 221/3/6
f 220/2/6 218/2/6 222/2/6
f 221/3/6 220/3/6 222/3/6
f 221/2/6 222/2/6 224/2/6
f 222/2/6 218/2/6 225/2/6
f 224/2/6 222/2/6 225/2/6
f 223/2/6 224/2/6 227/2/6
f 224/2/6 225/2/6 227/2/6
f 227/2/6 225/2/6 228/2/6
f 223/2/6 227/2/6 229/2/6
f 227/3/6 228/3/6 230/3/6
f 229/2/6 227/2/6 230/2/6
f 228/2/6 225/2/6 231/2/6
f 230/3/6 228/3/6 231/3/6
f 225/3/6 226/3/6 232/3/6
f 231/2/6 225/2/6 232/2/6
f 230/2/6 231/2/6 232/2/6
f 232/3/6 226/3/6 233/3/6
f 229/3/6 230/3/6 234/3/6
f 230/2/6 232/2/6 235/2/6
f 234/3/6 230/3/6 235/3/6
f 232/2/6 233/2/6 235/2/6
f 234/2/6 235/2/6 236/2/6
f 235/2/6 233/2/6 237/2/6
f 236/2/6 235/2/6 237/2/6
